<svg width="100" height="100" viewBox="0 0 100 100" fill="none" xmlns="http://www.w3.org/2000/svg">
<rect width="100" height="100" fill="#111010"/>
<path d="M39.168 55.6562H48.0273C47.8815 58.3906 47.1341 60.806 45.7852 62.9023C44.4544 64.9805 42.6042 66.612 40.2344 67.7969C37.8646 68.9635 35.0482 69.5469 31.7852 69.5469C29.1784 69.5469 26.8451 69.1003 24.7852 68.207C22.7253 67.3138 20.9753 66.0378 19.5352 64.3789C18.1133 62.7018 17.0195 60.6875 16.2539 58.3359C15.5065 55.9661 15.1328 53.2956 15.1328 50.3242V47.8906C15.1328 44.9193 15.5247 42.2487 16.3086 39.8789C17.0924 37.5091 18.2135 35.4857 19.6719 33.8086C21.1302 32.1315 22.8802 30.8464 24.9219 29.9531C26.9635 29.0599 29.2422 28.6133 31.7578 28.6133C35.1484 28.6133 38.0104 29.224 40.3438 30.4453C42.6771 31.6667 44.4818 33.3438 45.7578 35.4766C47.0521 37.6094 47.8268 40.043 48.082 42.7773H39.1953C39.1224 41.2279 38.8307 39.9245 38.3203 38.8672C37.8099 37.7917 37.026 36.9805 35.9688 36.4336C34.9115 35.8867 33.5078 35.6133 31.7578 35.6133C30.4818 35.6133 29.3607 35.8503 28.3945 36.3242C27.4466 36.7982 26.6536 37.5365 26.0156 38.5391C25.3958 39.5417 24.931 40.8177 24.6211 42.3672C24.3112 43.8984 24.1562 45.7214 24.1562 47.8359V50.3242C24.1562 52.4206 24.293 54.2344 24.5664 55.7656C24.8398 57.2969 25.2773 58.5638 25.8789 59.5664C26.4987 60.569 27.2917 61.3164 28.2578 61.8086C29.224 62.3008 30.3997 62.5469 31.7852 62.5469C33.3711 62.5469 34.6927 62.3008 35.75 61.8086C36.8073 61.2982 37.6185 60.5326 38.1836 59.5117C38.7487 58.4909 39.0768 57.2057 39.168 55.6562ZM52.9766 29.1875H68.2617C71.306 29.1875 73.9401 29.6432 76.1641 30.5547C78.4062 31.4661 80.1289 32.8151 81.332 34.6016C82.5352 36.388 83.1367 38.5938 83.1367 41.2188C83.1367 43.4062 82.7812 45.2656 82.0703 46.7969C81.3594 48.3281 80.3568 49.5951 79.0625 50.5977C77.7865 51.6003 76.2917 52.4115 74.5781 53.0312L71.6797 54.6172H58.6641L58.6094 47.6992H68.2891C69.6198 47.6992 70.7227 47.4622 71.5977 46.9883C72.4727 46.5143 73.1289 45.849 73.5664 44.9922C74.0221 44.1172 74.25 43.0964 74.25 41.9297C74.25 40.7266 74.0221 39.6875 73.5664 38.8125C73.1107 37.9375 72.4362 37.2721 71.543 36.8164C70.668 36.3424 69.5742 36.1055 68.2617 36.1055H61.8906V69H52.9766V29.1875ZM75.0156 69L66.0742 51.3086L75.4805 51.2812L84.5586 68.5898V69H75.0156Z" fill="white"/>
</svg>
